PathFileType	4	(X/Y/Z)	7_coords_data.trc
DataRate	CameraRate	NumFrames	NumMarkers	Units	OrigDataRate	OrigDataStartFrame	OrigNumFrames
30.0	30.0	7	21	m	30.0	29	56
Frame#	Time	THUMB_TIP	THUMB_IP	THUMB_MCP	THUMB_CMC	INDEX_TIP	INDEX_DIP	INDEX_PIP	INDEX_MCP	MIDDLE_TIP	MIDDLE_DIP	MIDDLE_PIP	MIDDLE_MCP	RING_TIP	RING_DIP	RING_PIP	RING_MCP	PINKY_TIP	PINKY_DIP	PINKY_PIP	PINKY_MCP	WRIST
X1	Y1	Z1	X2	Y2	Z2	X3	Y3	Z3	X4	Y4	Z4	X5	Y5	Z5	X6	Y6	Z6	X7	Y7	Z7	X8	Y8	Z8	X9	Y9	Z9	X10	Y10	Z10	X11	Y11	Z11	X12	Y12	Z12	X13	Y13	Z13	X14	Y14	Z14	X15	Y15	Z15	X16	Y16	Z16	X17	Y17	Z17	X18	Y18	Z18	X19	Y19	Z19	X20	Y20	Z20	X21	Y21	Z21
27	0.9333333333333294	0.4816422639023197	-0.033812837163337606	-0.1732359567615438	0.4782283185065641	-0.03474464655267484	-0.15053184462086006	0.46391645136500437	-0.03371972634065934	-0.12291047612685968	0.4669788944138329	-0.03303391523645727	-0.07841282331570532	0.5680566293591766	0.0202725201763303	-0.17298151061717104	0.5529717176531878	0.019953611408115024	-0.16296433856014436	0.5327504256424083	0.016354652658372437	-0.14846755690584468	0.5043644373455072	-0.0013938706661064115	-0.12214529100397686	0.5933427698978372	0.043530210371657496	-0.14053178763359925	0.5780725212058572	0.03713950556787571	-0.13318478845053094	0.5532039665657253	0.02717747860000097	-0.12170774358688619	0.5185784215303173	0.005495951111593733	-0.10362098274448073	0.6004895305815231	0.033753286397094295	-0.11675693908655926	0.5850589044582367	0.028492529131077582	-0.10906147221109241	0.5636913283249827	0.02072061922273083	-0.0989025310474605	0.5307017566883466	0.0014847231326657884	-0.08562136773834139	0.6051348833171524	0.009632497163215237	-0.06368990606194691	0.5885164617367886	0.005539029478291213	-0.0634223495449634	0.5681267631669441	0.0005360981073990745	-0.06362944596942133	0.5334833432543554	-0.00921182115130581	-0.0660158612488374	0.462283081001861	-0.023011742144276925	-0.051989820119430985
28	0.9666666666666625	0.48171145099759405	-0.03374726706378928	-0.17322458207078795	0.4782458504406504	-0.034670365662571534	-0.15052794131148972	0.4639026607744381	-0.03365515926086815	-0.12292246601833456	0.4669656231766791	-0.03300998684215861	-0.07842424117876823	0.5681739253966235	0.020202579586339087	-0.17286747749289744	0.5530791998820542	0.01993574871239112	-0.16286357510810173	0.5328287034061461	0.01638917322467326	-0.14839467647036314	0.5043883990947067	-0.001329723910287517	-0.12211110995070285	0.5936088657594659	0.043158829390544495	-0.14040546113206998	0.5782889457690303	0.03687745241000728	-0.13306758986616274	0.553354841932428	0.027062907313644913	-0.1216057086760175	0.5186109395012597	0.005532752952468356	-0.10356515386089693	0.6006092178280531	0.03360978976724227	-0.11664641338033932	0.5851647905578485	0.02838222398357171	-0.1089560153234922	0.5637705712070121	0.020666260341684284	-0.09881051077983505	0.5307253313322111	0.001506844644982852	-0.08555721889525547	0.6052674716095933	0.00916633089378105	-0.06373379749285524	0.5886164334937417	0.005209521694740871	-0.06343953463953422	0.5681920114360041	0.0003490432860810966	-0.06361489782367313	0.5334973398538689	-0.009225523932485657	-0.06595815994834775	0.4622830810018609	-0.023011742144276925	-0.051989820119430985
29	0.9999999999999956	0.48176794944207135	-0.03371487899064318	-0.17321906474723486	0.47825470391886993	-0.03461785082599422	-0.1505289402927884	0.4638966559774196	-0.033612927245231905	-0.12293081376384007	0.4669603007708205	-0.03299114251699675	-0.0784323029535714	0.5682768771041026	0.020110296691270846	-0.17278109123954422	0.5531753687825857	0.019886583723389695	-0.16278637268807122	0.5328947297447018	0.016397238995645824	-0.14834580529665525	0.5044215707459805	-0.0012965766146597613	-0.12208091999741877	0.5938482685848954	0.042775780101506844	-0.14032508595754067	0.5784826887197853	0.036602305064441065	-0.13299111286135	0.5534929717916782	0.02692230335727608	-0.12153593216428682	0.518646794018026	0.0055318706353267855	-0.10352645678228878	0.6007057754348355	0.03346777476100937	-0.11657394489724004	0.5852518861621003	0.028266251258365682	-0.10888489686790037	0.5638388515325671	0.02059425646029478	-0.09874574390659296	0.5307501711157143	0.0014933668732849403	-0.08551637962646785	0.6053563131004932	0.008828645478886177	-0.0637255432502678	0.5886846711596162	0.004960411601977022	-0.0634203848180992	0.5682388060980763	0.00019054109976224254	-0.06358456848782612	0.5335099556947628	-0.009259447521415165	-0.06592724126136662	0.4622830810018608	-0.023011742144276925	-0.051989820119430985
30	1.0333333333333288	0.48184093013253415	-0.033697942350670695	-0.17320777480505695	0.4782839977610509	-0.034582166211475585	-0.15052371916527602	0.4639027779581706	-0.03358506861980448	-0.12293737628743273	0.46695484365273054	-0.03297898324726922	-0.07843785319428853	0.5683892107462007	0.020023868374874465	-0.17269307123185962	0.5532812185254834	0.0198361468528796	-0.16270741493450358	0.5329734309039734	0.016389113240729114	-0.14829486643687967	0.5044641947108783	-0.0012734989812100972	-0.12204812044459101	0.5940678735296651	0.0424464649693842	-0.14022817175480679	0.5786592195810061	0.036373674941455936	-0.13290051150291393	0.5536184165678533	0.026810189057196787	-0.12145903117045453	0.5186853309294079	0.00553324560338142	-0.10348351654527088	0.6007921422728633	0.03340187250087512	-0.11645240245357924	0.5853315926913535	0.028206103552719575	-0.10877285873828824	0.5639002000438351	0.020554457921085678	-0.09865714288048588	0.5307770229012515	0.0014866983742922724	-0.08546636898936422	0.6053910679609782	0.008698824571433006	-0.06359796430144204	0.5887107391254066	0.004866348013154331	-0.06331733399758155	0.5682606865407691	0.00011520289845745602	-0.06350169338749723	0.5335229702148798	-0.009290377851052911	-0.06589116325056166	0.4622830810018608	-0.023011742144276925	-0.051989820119430985
31	1.0666666666666622	0.4819121765463419	-0.03376526650037992	-0.17318767885489772	0.4783201908098269	-0.034624848837536804	-0.15050820009822596	0.46390992024844513	-0.03361010056338509	-0.12293766531400596	0.4669487320371223	-0.032982701370624534	-0.07843753055953673	0.5685006189650929	0.019888681634678385	-0.172618293322368	0.5533839402921686	0.019735614487653708	-0.16264519970262992	0.533050992569671	0.016333519475046243	-0.1482574681427427	0.5044966156434489	-0.0012905105082275936	-0.1220338677129027	0.5943153427656294	0.04201807975639715	-0.14015902956735365	0.5788593722235981	0.036060875837033435	-0.1328361410616491	0.5537587302641951	0.026642980141095784	-0.12140501846208351	0.5187176827183076	0.005524299946691458	-0.10345301983426125	0.6009185415095369	0.033240319878322766	-0.11633312550301766	0.5854451653323214	0.02806770297853234	-0.10866379280151217	0.5639874661707037	0.020460736304602545	-0.09857017185998496	0.5308068985785779	0.001463190809180337	-0.08542239511204242	0.6054074582092974	0.008636338266226562	-0.0634359007431966	0.5887256156369055	0.004808751179522397	-0.06317956993423157	0.568276119218824	5.671021676478816e-05	-0.06339916486847708	0.533539747689276	-0.009337608636287409	-0.06585165691706718	0.4622830810018608	-0.023011742144276925	-0.051989820119430985
32	1.0999999999999952	0.4818955402466605	-0.033844654330157375	-0.17318441518964045	0.4783019886474563	-0.0346833769511089	-0.15050440347736477	0.46389429975794005	-0.03365497738108192	-0.12293302528933658	0.4669291742693036	-0.033003929281848365	-0.07843296154699153	0.5685822098342839	0.019696883677184918	-0.1725921169390826	0.5534592286161658	0.019576131199016467	-0.16262813892247374	0.5331077377834815	0.016226204794285937	-0.14825439038668625	0.504512247103436	-0.0013482633656527465	-0.12204233064955883	0.5945737969758749	0.04147768539360819	-0.14014953640213923	0.5790675968677457	0.03565557747425807	-0.13282418196825013	0.553902443745967	0.026408113305637082	-0.12139575141950443	0.5187545644908667	0.0054674662623449555	-0.10344404380498584	0.6010725293134169	0.03294137199628833	-0.11627815095994021	0.5855780182360701	0.027828201020668963	-0.10861162573347272	0.5640874318724621	0.02029902971178532	-0.09852964893575122	0.5308388733953239	0.0014122117111043941	-0.08539411320242563	0.6054266938608219	0.008554533267800313	-0.0633176907700127	0.5887468941196078	0.004716788887576984	-0.06308105039929446	0.5682987272772319	-3.952818641173028e-05	-0.06332992723236908	0.5335603106364546	-0.009415667778787551	-0.06582269008431774	0.4622830810018609	-0.023011742144276925	-0.051989820119430985
33	1.1333333333333284	0.4818195161740455	-0.03387071657168106	-0.17320250429227535	0.4782415744937616	-0.034710639367259044	-0.15052006917102	0.46386347425666097	-0.03368419276502266	-0.1229331766141436	0.4669003551087696	-0.03301583910553685	-0.07843350629990475	0.5686250777084183	0.019520143177711224	-0.17259373328525612	0.5534973067727965	0.019434936158143734	-0.16263666111100872	0.5331313865339725	0.016143005563371116	-0.14826995241398766	0.5045108126917904	-0.0013860754385142116	-0.1220548772438963	0.5947839631937887	0.04098333826282341	-0.1401722019750249	0.5792343034200241	0.03528859478152979	-0.13283885501729592	0.554011091466096	0.026203039308280607	-0.12140855272602968	0.518776780783422	0.005415401990044422	-0.10344844675634546	0.6011889243498469	0.03266775123783017	-0.11627342335618074	0.585678950644774	0.027610418496206046	-0.10860112896607532	0.5641602821375731	0.02016025920423281	-0.09852035463066688	0.530858667168118	0.0013648925669668133	-0.0853880483824514	0.605448698701458	0.008451460124805577	-0.06328419646066286	0.5887680689564257	0.004616635749582265	-0.06305900027877576	0.5683186302326885	-0.00013345867703506986	-0.0633218268800283	0.5335745967507886	-0.00948746607694273	-0.06581945254675647	0.4622830810018608	-0.023011742144276925	-0.051989820119430985
